<?xml version='1.0' encoding='utf-8'?>
<svg xmlns="http://www.w3.org/2000/svg" version="1.1" width="96" height="96" viewBox="0 0 96 96">
<path d="M0 0 C2.787 2.114 3.655 4.086 4.812 7.375 C4.851 12.663 4.268 15.354 0.609 19.227 C-0.722 20.503 -2.072 21.76 -3.438 23 C-4.778 24.261 -6.117 25.524 -7.453 26.789 C-8.092 27.392 -8.73 27.995 -9.388 28.616 C-12.917 32.066 -15.838 34.976 -17.062 39.875 C-18.246 43.556 -18.732 44.084 -21.625 46.312 C-24.437 48.479 -25.629 49.904 -26.625 53.312 C-28.284 58.529 -31.643 61.473 -36.188 64.375 C-44.586 68.076 -51.779 68.142 -60.367 65.129 C-62.187 64.375 -62.187 64.375 -63.188 63.375 C-63.438 61 -63.438 61 -63.188 58.375 C-62.722 57.975 -62.257 57.576 -61.777 57.164 C-59.441 54.535 -59.181 51.476 -58.5 48.125 C-57.081 41.992 -55.183 38.289 -50.09 34.477 C-48.188 33.375 -48.188 33.375 -45.188 32.375 C-44.181 30.621 -43.177 28.866 -42.211 27.09 C-40.832 24.779 -39.554 23.66 -37.188 22.375 C-36.094 22.148 -35.001 21.921 -33.875 21.688 C-29.509 20.134 -28.127 18.394 -25.285 14.879 C-22.654 11.738 -19.826 8.841 -16.938 5.938 C-16.418 5.405 -15.898 4.873 -15.363 4.325 C-10.692 -0.362 -6.54 -1.869 0 0 Z M-13.062 10.875 C-13.924 11.785 -14.785 12.695 -15.672 13.633 C-16.087 14.085 -16.087 14.085 -18.188 16.375 C-18.551 16.755 -18.551 16.755 -20.391 18.68 C-25.188 23.847 -25.188 23.847 -25.188 28.375 C-23.188 30.125 -23.188 30.125 -21.188 31.375 C-18.001 28.333 -14.842 25.263 -11.688 22.188 C-11.234 21.755 -11.234 21.755 -8.941 19.568 C-8.513 19.148 -8.513 19.148 -6.344 17.02 C-5.548 16.25 -4.752 15.48 -3.932 14.687 C-2.188 12.375 -2.188 12.375 -1.865 9.647 C-2.188 7.375 -2.188 7.375 -3.188 6.375 C-8.087 5.629 -9.782 7.396 -13.062 10.875 Z M-35.188 28.375 C-35.847 29.035 -36.508 29.695 -37.188 30.375 C-36.937 34.226 -34.821 36.057 -32.125 38.625 C-31.392 39.331 -30.658 40.038 -29.902 40.766 C-29.619 41.031 -29.619 41.031 -28.188 42.375 C-26.867 41.715 -25.547 41.055 -24.188 40.375 C-24.188 37.375 -24.188 37.375 -26.086 35.113 C-26.903 34.313 -27.72 33.512 -28.562 32.688 C-29.375 31.879 -30.187 31.071 -31.023 30.238 C-33.188 28.375 -33.188 28.375 -35.188 28.375 Z M-48.727 41.273 C-52.086 46.106 -54.188 54.461 -54.188 60.375 C-46.344 60.752 -41.304 60.49 -34.875 55.625 C-32.394 52.318 -31.911 50.53 -32.188 46.375 C-34.447 43.205 -36.983 40.59 -40.188 38.375 C-44.154 38.375 -45.761 38.699 -48.727 41.273 Z " fill="#D2DAE5" transform="translate(77.1875,14.625)" />
</svg>