<?xml version='1.0' encoding='utf-8'?>
<svg xmlns="http://www.w3.org/2000/svg" version="1.1" width="96" height="96" viewBox="0 0 96 96">
<path d="M0 0 C4.586 0.338 6.643 2.14 9.828 5.332 C10.71 6.213 11.592 7.094 12.5 8.002 C13.407 8.929 14.315 9.857 15.25 10.812 C16.173 11.728 17.096 12.644 18.047 13.588 C25.637 21.25 25.637 21.25 26 25 C24.274 28.072 21.445 30.489 19 33 C17.789 34.297 16.578 35.594 15.367 36.891 C14.038 38.283 12.707 39.674 11.375 41.062 C11.052 41.408 11.052 41.408 9.42 43.159 C7.677 44.94 6.041 46.571 4 48 C1.039 47.934 1.039 47.934 -1 47 C-1.726 44.763 -1.726 44.763 -2 42 C-0.553 39.872 -0.553 39.872 1.621 37.793 C2.391 37.042 3.162 36.291 3.955 35.518 C4.774 34.749 5.593 33.98 6.438 33.188 C7.253 32.399 8.068 31.611 8.908 30.799 C10.926 28.852 12.957 26.92 15 25 C13.613 21.834 12.022 19.84 9.488 17.504 C8.813 16.863 8.139 16.221 7.443 15.561 C6.018 14.224 4.586 12.896 3.146 11.576 C2.476 10.934 1.805 10.291 1.113 9.629 C0.492 9.052 -0.129 8.475 -0.768 7.881 C-2 6 -2 6 -1.757 3.336 C-1 1 -1 1 0 0 Z " fill="#D2DAE5" transform="translate(35,24)" />
</svg>